<svg xmlns="http://www.w3.org/2000/svg" width="51" height="55.998" viewBox="0 0 51 55.998">
  <g id="Group_107" data-name="Group 107" transform="translate(-1227 -3207)">
    <circle id="Ellipse_44" data-name="Ellipse 44" cx="11.5" cy="11.5" r="11.5" transform="translate(1242 3207)" fill="#fff"/>
    <circle id="Ellipse_45" data-name="Ellipse 45" cx="10.5" cy="10.5" r="10.5" transform="translate(1239 3210)" fill="#b8c0f0"/>
    <g id="Group_60" data-name="Group 60" transform="translate(1241.837 3207)">
      <g id="Ellipse_35" data-name="Ellipse 35" transform="translate(0.163)" fill="none" stroke="#000" stroke-width="3">
        <circle cx="11.5" cy="11.5" r="11.5" stroke="none"/>
        <circle cx="11.5" cy="11.5" r="10" fill="none"/>
      </g>
    </g>
    <path id="Path_37" data-name="Path 37" d="M31.855,1.93C41.418,4.326,48,11.965,48,22.231V25.91a5.775,5.775,0,0,1-6,5.519H6A5.775,5.775,0,0,1,0,25.91V22.231C0,12.392,5.792,4.869,15.407,1.93,23.2,6.089,24.928,7.55,31.855,1.93Z" transform="translate(1230 3230)" fill="#fff"/>
    <path id="Path_35" data-name="Path 35" d="M30.438,1.93c9.6,2.134,17.729,8.938,17.729,18.082v3.277c0,2.715-2.7,4.916-6.021,4.916H6.021C2.7,28.205,0,26,0,23.289V20.012C0,11.248,7.006,4.547,16.654,1.93,23.633,6.59,24.655,6.74,30.438,1.93Z" transform="translate(1227 3234.793)" fill="#b8c0f0"/>
    <g id="Path_36" data-name="Path 36" transform="translate(1230 3230)" fill="none">
      <path d="M31.855,1.93C41.418,4.326,48,11.965,48,22.231V25.91a5.775,5.775,0,0,1-6,5.519H6A5.775,5.775,0,0,1,0,25.91V22.231C0,12.392,5.792,4.869,15.407,1.93,23.2,6.089,24.928,7.55,31.855,1.93Z" stroke="none"/>
      <path d="M 15.12787246704102 5.184795379638672 C 13.48253631591797 5.781261444091797 11.96896743774414 6.540422439575195 10.61565017700195 7.44896125793457 C 9.000770568847656 8.533100128173828 7.61077880859375 9.832460403442383 6.484310150146484 11.31096076965332 C 5.35968017578125 12.78704071044922 4.493091583251953 14.44807052612305 3.908611297607422 16.2479305267334 C 3.305698394775391 18.10454940795898 3 20.1175708770752 3 22.23107147216797 L 3 25.91047096252441 C 3 27.29949951171875 4.345790863037109 28.42956161499023 6 28.42956161499023 L 42 28.42956161499023 C 43.65420913696289 28.42956161499023 45 27.29949951171875 45 25.91047096252441 L 45 22.23107147216797 C 45 17.96557998657227 43.68122100830078 14.08971977233887 41.18624114990234 11.02252006530762 C 39.01634216308594 8.35496711730957 36.03550720214844 6.371952056884766 32.50591278076172 5.234580993652344 C 29.78185081481934 7.29942512512207 27.28435325622559 8.61775016784668 24.45429039001465 8.61775016784668 C 21.51082992553711 8.61775016784668 18.99511909484863 7.264720916748047 15.18711853027344 5.21666145324707 C 15.16741561889648 5.206062316894531 15.14765930175781 5.195436477661133 15.12787246704102 5.184795379638672 M 15.40703964233398 1.930170059204102 C 19.58732604980469 4.162397384643555 22.02386856079102 5.617752075195312 24.45428657531738 5.617752075195312 C 26.55246734619141 5.617752075195312 28.64587593078613 4.534141540527344 31.85519027709961 1.930170059204102 C 41.41762161254883 4.326351165771484 48 11.96504020690918 48 22.23107147216797 L 48 25.91047096252441 C 48 28.95858001708984 45.3137092590332 31.42956161499023 42 31.42956161499023 L 6 31.42956161499023 C 2.686290740966797 31.42956161499023 0 28.95858001708984 0 25.91047096252441 L 0 22.23107147216797 C 0 12.39186096191406 5.7923583984375 4.868600845336914 15.40703964233398 1.930170059204102 Z" stroke="none" fill="#000"/>
    </g>
  </g>
</svg>
