<svg xmlns="http://www.w3.org/2000/svg" width="55.924" height="51.092" viewBox="0 0 55.924 51.092">
  <g id="Group_73" data-name="Group 73" transform="translate(-966 -3293.908)">
    <g id="Group_62" data-name="Group 62" transform="translate(972.117 3299)">
      <path id="Path_45" data-name="Path 45" d="M21.72,0c1.987,0,0,20,0,20s21.3-2.476,22,1a22.333,22.333,0,0,1-22,22,22.333,22.333,0,0,1-22-22C-.28,9.172,9.756,0,21.72,0Z" transform="translate(0.163)" fill="#fff"/>
    </g>
    <g id="Group_63" data-name="Group 63" transform="translate(966.117 3302)">
      <path id="Path_45-2" data-name="Path 45" d="M21.72,0c1.987,0,0,20,0,20s21.3-2.476,22,1a22.333,22.333,0,0,1-22,22,22.333,22.333,0,0,1-22-22C-.28,9.172,9.756,0,21.72,0Z" transform="translate(0.163)" fill="#b8c0f0"/>
    </g>
    <path id="Path_47" data-name="Path 47" d="M5.145,21.34C9.734,20.788,25.79,27.3,25.79,38.046c-4.343,3.518-20.645,3.4-20.645,3.4S.556,21.892,5.145,21.34Z" transform="matrix(0.996, 0.087, -0.087, 0.996, 998.09, 3272.411)" fill="#fff"/>
    <path id="Path_48" data-name="Path 48" d="M4.628,21.332c3.426-.421,15.413,4.547,15.413,12.735-3.242,2.682-15.413,2.6-15.413,2.6S1.2,21.753,4.628,21.332Z" transform="matrix(0.996, 0.087, -0.087, 0.996, 996.978, 3276.313)" fill="#9193c1"/>
    <g id="Group_61" data-name="Group 61" transform="translate(972.117 3299)">
      <g id="Path_45-3" data-name="Path 45" transform="translate(0.163)" fill="none">
        <path d="M21.72,0c1.987,0,0,20,0,20s21.3-2.476,22,1a22.333,22.333,0,0,1-22,22,22.333,22.333,0,0,1-22-22C-.28,9.172,9.756,0,21.72,0Z" stroke="none"/>
        <path d="M 19.55488204956055 3.115085601806641 C 17.76341247558594 3.30706787109375 16.01859664916992 3.738632202148438 14.34515571594238 4.405040740966797 C 12.07570457458496 5.308780670166016 10.03859329223633 6.601848602294922 8.290424346923828 8.248298645019531 C 4.698413848876953 11.63132095336914 2.72021484375 16.15995025634766 2.72021484375 21 C 2.72021484375 23.47919082641602 3.228275299072266 25.91515922546387 4.23028564453125 28.24024963378906 C 5.204235076904297 30.50022888183594 6.593463897705078 32.54534912109375 8.359394073486328 34.31877899169922 C 10.12895584106445 36.09584808349609 12.17124557495117 37.49380874633789 14.42953491210938 38.47380828857422 C 16.76317405700684 39.48651885986328 19.21611404418945 40 21.72021484375 40 C 24.22431564331055 40 26.67725563049316 39.48651885986328 29.01089477539062 38.47380828857422 C 31.26918411254883 37.49380874633789 33.31147384643555 36.09584808349609 35.08103561401367 34.31877899169922 C 36.84696578979492 32.54534912109375 38.2361946105957 30.50022888183594 39.21014404296875 28.24024963378906 C 40.00666427612305 26.3919849395752 40.49104309082031 24.47380638122559 40.65621948242188 22.5193977355957 C 39.8047981262207 22.34560585021973 38.19155502319336 22.14510154724121 35.28014373779297 22.14516067504883 C 29.32566452026367 22.1452808380127 22.13827514648438 22.97162055969238 22.06661415100098 22.97993087768555 L 18.36666488647461 23.41003036499023 L 18.73491477966309 19.70340919494629 C 18.73881530761719 19.6640796661377 19.12866401672363 15.719970703125 19.38381576538086 11.4117603302002 C 19.64596176147461 6.98541259765625 19.6304931640625 4.490795135498047 19.55488204956055 3.115085601806641 M 21.72021484375 0 C 23.70719528198242 0.000141143798828125 21.72021484375 20 21.72021484375 20 C 21.72021484375 20 29.07297134399414 19.14528846740723 35.28008270263672 19.14516067504883 C 39.63783264160156 19.14507102966309 43.43020629882812 19.56619453430176 43.72021484375 21 C 43.72021484375 32.82826232910156 33.68455505371094 43 21.72021484375 43 C 9.755874633789062 43 -0.27978515625 32.82826232910156 -0.27978515625 21 C -0.27978515625 9.171741485595703 9.755874633789062 0 21.72021484375 0 Z" stroke="none" fill="#000"/>
      </g>
    </g>
    <g id="Path_46" data-name="Path 46" transform="matrix(0.996, 0.087, -0.087, 0.996, 998.09, 3272.411)" fill="none">
      <path d="M5.145,21.34C9.734,20.788,25.79,27.3,25.79,38.046c-4.343,3.518-20.645,3.4-20.645,3.4S.556,21.892,5.145,21.34Z" stroke="none"/>
      <path d="M 6.297477722167969 24.34168243408203 C 6.094125747680664 25.29410934448242 5.8785400390625 27.64908981323242 6.616340637207031 32.90978240966797 C 6.908119201660156 34.990234375 7.273477554321289 36.96712493896484 7.564369201660156 38.41738891601562 C 9.303003311157227 38.37090301513672 11.80193996429443 38.26100158691406 14.38955020904541 38.00254058837891 C 18.86428833007812 37.55558776855469 21.3059253692627 36.90276336669922 22.60841178894043 36.39253234863281 C 22.34392356872559 35.18705749511719 21.79059410095215 33.99257278442383 20.95396995544434 32.82482147216797 C 19.81591033935547 31.23633003234863 18.12609100341797 29.67388916015625 16.06721115112305 28.3064079284668 C 13.74824047088623 26.76618957519531 11.52377033233643 25.81892776489258 10.06602096557617 25.29549026489258 C 8.230234146118164 24.63631439208984 6.98796272277832 24.41435623168945 6.297477722167969 24.34168243408203 M 5.738554000854492 21.30768966674805 C 10.97313785552979 21.30768966674805 25.78952980041504 27.72734451293945 25.78952980041504 38.04640197753906 C 21.71119689941406 41.35032272338867 7.086288452148438 41.45104217529297 5.319755554199219 41.45104217529297 C 5.205171585083008 41.45104217529297 5.144950866699219 41.45061874389648 5.144950866699219 41.45061874389648 C 5.144950866699219 41.45061874389648 0.5560302734375 21.89233779907227 5.144950866699219 21.3402099609375 C 5.325605392456055 21.31847381591797 5.52403450012207 21.30768966674805 5.738554000854492 21.30768966674805 Z" stroke="none" fill="#000"/>
    </g>
  </g>
</svg>
