<svg xmlns="http://www.w3.org/2000/svg" width="75" height="51" viewBox="0 0 75 51">
  <g id="Group_21" data-name="Group 21" transform="translate(-198.5 -1743)">
    <path id="Path_16" data-name="Path 16" d="M7.5,0h55c4.238,0,8,3.134,8,7V33c0,3.866-8,7-8,7s-7.3,4-21,4-34-4-34-4a6.774,6.774,0,0,1-7-7V7A6.774,6.774,0,0,1,7.5,0Z" transform="translate(198 1750)" fill="#9193c1"/>
    <g id="Group_13" data-name="Group 13" transform="translate(203 1743)">
      <g id="Path_12" data-name="Path 12" transform="translate(70 33.876) rotate(180)" fill="#fff">
        <path d="M 36.34897994995117 32.3763427734375 C 22.4424991607666 32.3763427734375 6.995870113372803 29.16893196105957 6.841460227966309 29.13653182983398 L 6.689109802246094 29.10456085205078 L 6.533329963684082 29.10454177856445 C 3.804980039596558 29.10454177856445 1.5 27.56177139282227 1.5 25.73563194274902 L 1.5 4.868901252746582 C 1.5 3.09080982208252 3.685414791107178 1.581363201141357 6.31903600692749 1.503178358078003 C 7.24869441986084 1.784734964370728 10.82648658752441 2.836622476577759 15.78905963897705 3.901091337203979 C 21.03759956359863 5.026891231536865 28.86502075195312 6.368901252746582 36.34897994995117 6.368901252746582 C 43.85020065307617 6.368901252746582 50.95816040039062 5.021891593933105 55.6001091003418 3.891891479492188 C 59.8601188659668 2.854868173599243 62.82865142822266 1.826509118080139 63.72100448608398 1.504477977752686 C 66.33667755126953 1.596696376800537 68.5 3.099838018417358 68.5 4.868901252746582 L 68.5 25.73563194274902 C 68.5 27.56177139282227 66.19500732421875 29.10454177856445 63.46665954589844 29.10454177856445 L 63.27917861938477 29.10454177856445 L 63.09746932983398 29.15068054199219 C 63.06584930419922 29.15870094299316 59.85467147827148 29.96791076660156 54.96625137329102 30.76615142822266 C 50.46778869628906 31.50071144104004 43.58628082275391 32.3763427734375 36.34897994995117 32.3763427734375 Z" stroke="none"/>
        <path d="M 6.133384704589844 3.013496398925781 C 4.234054565429688 3.142757415771484 3 4.17259407043457 3 4.868900299072266 L 3 25.73563003540039 C 3 26.47966575622559 4.409233093261719 27.60453605651855 6.533329010009766 27.60453605651855 L 6.844871520996094 27.60461807250977 L 7.149398803710938 27.66847610473633 C 7.302387237548828 27.70055961608887 22.60647201538086 30.8763484954834 36.3489875793457 30.8763484954834 C 50.01458740234375 30.8763484954834 62.60367202758789 27.7283821105957 62.7282829284668 27.69681930541992 L 63.09170532226562 27.60453605651855 L 63.46665954589844 27.60453605651855 C 65.59075164794922 27.60453605651855 67 26.47966575622559 67 25.73563003540039 L 67 4.868900299072266 C 67 4.181539535522461 65.79719543457031 3.169145584106445 63.93922424316406 3.018903732299805 C 62.76042938232422 3.433921813964844 59.89158248901367 4.390998840332031 55.95489501953125 5.349325180053711 C 51.23318862915039 6.498748779296875 43.99893188476562 7.868900299072266 36.3489875793457 7.868900299072266 C 30.23504638671875 7.868900299072266 23.21184539794922 7.027383804321289 15.47447204589844 5.36772346496582 C 10.83100128173828 4.371707916259766 7.373924255371094 3.382823944091797 6.133384704589844 3.013496398925781 M 6.533329010009766 -3.814697265625e-06 C 6.533329010009766 -3.814697265625e-06 22.11565780639648 4.868900299072266 36.3489875793457 4.868900299072266 C 50.58231735229492 4.868900299072266 63.46665954589844 -3.814697265625e-06 63.46665954589844 -3.814697265625e-06 C 67.07492828369141 -3.814697265625e-06 70 2.179876327514648 70 4.868900299072266 L 70 25.73563003540039 C 70 28.42465400695801 67.07492828369141 30.60453605651855 63.46665954589844 30.60453605651855 C 63.46665954589844 30.60453605651855 50.58231735229492 33.87634658813477 36.3489875793457 33.87634658813477 C 22.11565780639648 33.87634658813477 6.533329010009766 30.60453605651855 6.533329010009766 30.60453605651855 C 2.925071716308594 30.60453605651855 0 28.42465400695801 0 25.73563003540039 L 0 4.868900299072266 C 0 2.179876327514648 2.925071716308594 -3.814697265625e-06 6.533329010009766 -3.814697265625e-06 Z" stroke="none" fill="#000"/>
      </g>
      <g id="Path_13" data-name="Path 13" transform="translate(0 7)" fill="#fff">
        <path d="M 36.5 37.5 C 22.56925010681152 37.5 6.936659812927246 34.55617141723633 6.780379772186279 34.52643966674805 L 6.641439914703369 34.5 L 6.5 34.5 C 4.864170074462891 34.5 3.822449922561646 33.76174163818359 3.23661994934082 33.14241027832031 C 2.450730085372925 32.31159973144531 2 31.16622924804688 2 30 L 2 6 C 2 4.833769798278809 2.450730085372925 3.688410043716431 3.23661994934082 2.857589960098267 C 3.791520833969116 2.270957708358765 4.755521297454834 1.577618479728699 6.245931625366211 1.506043791770935 C 7.251717567443848 1.875963568687439 10.84392261505127 3.156178712844849 15.78205966949463 4.450950145721436 C 21.0870304107666 5.841909885406494 28.98768043518066 7.5 36.5 7.5 C 44.03546905517578 7.5 51.13880920410156 5.833809852600098 55.77083969116211 4.436039924621582 C 59.93125534057617 3.180590867996216 62.85180282592773 1.934322237968445 63.80537414550781 1.508905172348022 C 66.47196960449219 1.663841485977173 69 3.812414884567261 69 6 L 69 30 C 69 32.27103042602539 66.27570343017578 34.5 63.5 34.5 L 63.32612991333008 34.5 L 63.1568717956543 34.53976821899414 C 63.03094100952148 34.56932830810547 50.38217163085938 37.5 36.5 37.5 Z" stroke="none"/>
        <path d="M 6.045745849609375 3.029354095458984 C 4.388626098632812 3.249008178710938 3.5 4.663108825683594 3.5 6 L 3.5 30 C 3.5 31.45433044433594 4.551422119140625 33 6.5 33 L 6.782867431640625 33 L 7.060764312744141 33.05287170410156 C 7.215648651123047 33.08234024047852 22.70907211303711 36 36.5 36 C 50.19402313232422 36 62.68997573852539 33.10855102539062 62.81372833251953 33.07955169677734 L 63.15225982666016 33 L 63.5 33 C 64.50616455078125 33 65.59223175048828 32.58562469482422 66.40525054931641 31.89155197143555 C 67.09075164794922 31.30634117126465 67.5 30.59922409057617 67.5 30 L 67.5 6 C 67.5 5.400775909423828 67.09075164794922 4.693656921386719 66.40525054931641 4.108448028564453 C 65.73882293701172 3.539516448974609 64.88884735107422 3.158504486083984 64.04987335205078 3.03961181640625 C 62.79529190063477 3.5833740234375 59.99592971801758 4.727878570556641 56.20418930053711 5.872081756591797 C 53.20456695556641 6.777248382568359 50.18961334228516 7.498952865600586 47.24307250976562 8.017152786254883 C 43.53476715087891 8.669317245483398 39.92028045654297 9 36.5 9 C 30.34051895141602 9 23.24200057983398 7.957647323608398 15.4016227722168 5.901905059814453 C 10.83475875854492 4.704479217529297 7.391242980957031 3.514560699462891 6.045745849609375 3.029354095458984 M 6.5 0 C 6.5 0 22.26667022705078 6 36.5 6 C 50.73334121704102 6 63.5 0 63.5 0 C 67.10826110839844 0 70.5 2.871471405029297 70.5 6 L 70.5 30 C 70.5 33.1285285949707 67.10826110839844 36 63.5 36 C 63.5 36 50.73334121704102 39 36.5 39 C 22.26667022705078 39 6.5 36 6.5 36 C 2.891738891601562 36 0.5 33.1285285949707 0.5 30 L 0.5 6 C 0.5 2.871471405029297 2.891738891601562 0 6.5 0 Z" stroke="none" fill="#000"/>
      </g>
      <path id="Path_14" data-name="Path 14" d="M6.189.062s14.107,6,27,6,24-6,24-6c3.269,0,6,.615,6,2v11c0,1.385-2.731,3-6,3a65.487,65.487,0,0,1-24,5c-12.893,0-27-5-27-5-3.269,0-6-1.615-6-3v-11C.189.677,2.92.062,6.189.062Z" transform="translate(3.311 16.938)" fill="#b8c0f0"/>
    </g>
    <path id="Path_15" data-name="Path 15" d="M0,.5s14.855,5,29,5,28-5,28-5" transform="translate(214.004 1769)" fill="none" stroke="#000" stroke-width="3"/>
  </g>
</svg>
