<svg xmlns="http://www.w3.org/2000/svg" width="48" height="24" viewBox="0 0 48 24">
  <g id="Group_91" data-name="Group 91" transform="translate(-932 -3244)">
    <rect id="Rectangle_74" data-name="Rectangle 74" width="48" height="4" rx="2" transform="translate(932 3248)" fill="#b8c0f0"/>
    <rect id="Rectangle_75" data-name="Rectangle 75" width="48" height="4" rx="2" transform="translate(932 3261)" fill="#b8c0f0"/>
    <line id="Line_30" data-name="Line 30" x2="24" transform="translate(937.5 3251.5)" fill="none" stroke="#000" stroke-linecap="round" stroke-width="1"/>
    <g id="Group_66" data-name="Group 66" transform="translate(939.837 3245)">
      <circle id="Ellipse_35" data-name="Ellipse 35" cx="4" cy="4" r="4" transform="translate(0.163)" fill="#fff"/>
    </g>
    <g id="Group_67" data-name="Group 67" transform="translate(937.837 3246)">
      <circle id="Ellipse_35-2" data-name="Ellipse 35" cx="4.5" cy="4.5" r="4.5" transform="translate(0.163)" fill="#9193c1"/>
    </g>
    <g id="Group_65" data-name="Group 65" transform="translate(938.837 3244)">
      <g id="Ellipse_35-3" data-name="Ellipse 35" transform="translate(0.163)" fill="none" stroke="#000" stroke-width="1.5">
        <circle cx="5" cy="5" r="5" stroke="none"/>
        <circle cx="5" cy="5" r="4.25" fill="none"/>
      </g>
    </g>
    <line id="Line_31" data-name="Line 31" x2="20" transform="translate(957.5 3264.5)" fill="none" stroke="#000" stroke-linecap="round" stroke-width="1"/>
    <g id="Group_71" data-name="Group 71" transform="translate(359 1215)">
      <g id="Group_68" data-name="Group 68" transform="translate(605.837 2043)">
        <circle id="Ellipse_35-4" data-name="Ellipse 35" cx="4" cy="4" r="4" transform="translate(0.163)" fill="#fff"/>
      </g>
      <g id="Group_69" data-name="Group 69" transform="translate(603.837 2044)">
        <circle id="Ellipse_35-5" data-name="Ellipse 35" cx="4.5" cy="4.5" r="4.5" transform="translate(0.163)" fill="#9193c1"/>
      </g>
      <g id="Group_70" data-name="Group 70" transform="translate(604.837 2042)">
        <g id="Ellipse_35-6" data-name="Ellipse 35" transform="translate(0.163)" fill="none" stroke="#000" stroke-width="1.5">
          <circle cx="5" cy="5" r="5" stroke="none"/>
          <circle cx="5" cy="5" r="4.25" fill="none"/>
        </g>
      </g>
    </g>
  </g>
</svg>
