<svg xmlns="http://www.w3.org/2000/svg" width="132.025" height="132" viewBox="0 0 132.025 132">
  <g id="Symbol" style="isolation: isolate">
    <g id="Path_625" data-name="Path 625" transform="translate(0.025)" fill="#7530aa">
      <path d="M 106.8222579956055 129.2499847412109 C 101.9745635986328 129.2499847412109 97.61245727539062 127.1861801147461 91.57508087158203 124.3297653198242 C 85.08915710449219 121.2611236572266 77.01724243164062 117.4421234130859 64.77632141113281 114.4272613525391 C 62.20233917236328 113.7937622070312 59.32846069335938 113.4858627319336 55.9899787902832 113.4858627319336 C 48.70635986328125 113.4858627319336 40.57015991210938 114.9755249023438 32.70185852050781 116.416145324707 C 25.55847930908203 117.7240447998047 18.81126022338867 118.9594039916992 13.40083980560303 118.9594039916992 C 9.65630054473877 118.9594039916992 7.013820171356201 118.3714981079102 5.322440147399902 117.1621246337891 C 4.509479999542236 116.5808410644531 3.91126012802124 115.8440246582031 3.493580102920532 114.9095993041992 C 3.004120111465454 113.814582824707 2.753940105438232 112.4174652099609 2.750000238418579 110.7570419311523 C 2.694640159606934 87.48714447021484 2.74944019317627 19.78060150146484 2.750000238418579 19.09942245483398 C 2.750000238418579 10.08330154418945 11.06715965270996 2.750001668930054 21.29031944274902 2.750001668930054 L 110.7096786499023 2.750001668930054 C 120.9328384399414 2.750001668930054 129.25 10.08330154418945 129.25 19.0971622467041 L 129.25 110.7635803222656 C 129.25 113.6519012451172 129.0243530273438 115.9105987548828 128.5398864746094 117.8718032836914 C 127.9742584228516 120.1614837646484 127.0540771484375 122.0102233886719 125.7267227172852 123.5236434936523 C 124.1764602661133 125.2912216186523 122.0730972290039 126.6125793457031 119.2964630126953 127.5632400512695 C 116.0274429321289 128.6824798583984 111.8305206298828 129.2499847412109 106.8222579956055 129.2499847412109 Z" stroke="none"/>
      <path d="M 21.29032135009766 5.5 C 12.58350372314453 5.5 5.5 11.59965515136719 5.5 19.10167694091797 C 5.5 19.10269927978516 5.444000244140625 87.21170043945312 5.499977111816406 110.7504959106445 C 5.5069580078125 113.6796798706055 5.512977600097656 116.2094039916992 13.40084075927734 116.2094039916992 C 18.56156921386719 116.2094039916992 25.18949890136719 114.9958801269531 32.20658874511719 113.7111053466797 C 40.19563293457031 112.2483825683594 48.45668029785156 110.73583984375 55.98999786376953 110.73583984375 C 59.55279541015625 110.73583984375 62.64166259765625 111.0698165893555 65.43397521972656 111.7570419311523 C 77.943359375 114.8380432128906 86.15388488769531 118.7226104736328 92.75115966796875 121.8439254760742 C 98.67724609375 124.6476974487305 102.5922698974609 126.4999694824219 106.8222732543945 126.4999694824219 C 125.0193176269531 126.4999694824219 126.5 119.3732452392578 126.5 110.7635879516602 L 126.5 19.09715270996094 C 126.5 11.59965515136719 119.41650390625 5.5 110.7096862792969 5.5 L 21.29032135009766 5.5 M 21.29032135009766 0 L 110.7096862792969 0 C 122.4680023193359 0 132 8.550086975097656 132 19.09715270996094 L 132 110.7635879516602 C 132 121.3106307983398 129.1771087646484 131.9999694824219 106.8222732543945 131.9999694824219 C 95.8013916015625 131.9999694824219 87.86954498291016 122.9471588134766 64.11865997314453 117.0974502563477 C 61.63978576660156 116.4873504638672 58.89810180664062 116.2358474731445 55.989990234375 116.2358474731445 C 42.41358947753906 116.2358474731445 25.14621734619141 121.7094039916992 13.40084075927734 121.7094039916992 C 5.440834045410156 121.7094039916992 0.0200653076171875 119.1972274780273 0 110.7635879516602 C -0.055999755859375 87.22008514404297 0 19.09715270996094 0 19.09715270996094 C 0 8.550086975097656 9.531997680664062 0 21.29032135009766 0 Z" stroke="none" fill="#7530aa"/>
    </g>
    <text id="R" transform="translate(39.025 90)" fill="#fff" font-size="78" font-family="NotoSansCJKkr-Bold, Noto Sans CJK KR" font-weight="700"><tspan x="0" y="0">R</tspan></text>
  </g>
</svg>
